<svg width="28" height="28" viewBox="0 0 28 28" fill="none" xmlns="http://www.w3.org/2000/svg">
<path d="M24 13.3238C24 12.0667 24 11.4382 23.6095 11.0477C23.219 10.6571 22.5904 10.6571 21.3333 10.6571H20.0095C18.7524 10.6571 18.1239 10.6571 17.7334 10.2666C17.3429 9.87609 17.3429 9.24755 17.3429 7.99048V6.66667C17.3429 5.40959 17.3429 4.78105 16.9523 4.39052C16.5618 4 15.9333 4 14.6762 4H13.3238C12.0667 4 11.4382 4 11.0477 4.39052C10.6571 4.78105 10.6571 5.40959 10.6571 6.66667V7.99048C10.6571 9.24756 10.6571 9.87609 10.2666 10.2666C9.87609 10.6571 9.24755 10.6571 7.99048 10.6571H6.66667C5.40959 10.6571 4.78105 10.6571 4.39052 11.0477C4 11.4382 4 12.0667 4 13.3238V14.6762C4 15.9333 4 16.5618 4.39052 16.9523C4.78105 17.3429 5.40959 17.3429 6.66667 17.3429H7.99048C9.24756 17.3429 9.87609 17.3429 10.2666 17.7334C10.6571 18.1239 10.6571 18.7524 10.6571 20.0095V21.3333C10.6571 22.5904 10.6571 23.219 11.0477 23.6095C11.4382 24 12.0667 24 13.3238 24H14.6762C15.9333 24 16.5618 24 16.9523 23.6095C17.3429 23.219 17.3429 22.5904 17.3429 21.3333V20.0095C17.3429 18.7524 17.3429 18.1239 17.7334 17.7334C18.1239 17.3429 18.7524 17.3429 20.0095 17.3429H21.3333C22.5904 17.3429 23.219 17.3429 23.6095 16.9523C24 16.5618 24 15.9333 24 14.6762V13.3238ZM14.6476 10.6857C15.9047 10.6857 16.5332 10.6857 16.9238 11.0762C17.3143 11.4668 17.3143 12.0953 17.3143 13.3524V14.6476C17.3143 15.9047 17.3143 16.5332 16.9238 16.9238C16.5332 17.3143 15.9047 17.3143 14.6476 17.3143H13.3524C12.0953 17.3143 11.4668 17.3143 11.0762 16.9238C10.6857 16.5332 10.6857 15.9047 10.6857 14.6476V13.3524C10.6857 12.0953 10.6857 11.4668 11.0762 11.0762C11.4668 10.6857 12.0953 10.6857 13.3524 10.6857H14.6476Z" fill="#070915"/>
</svg>
