<svg width="16" height="16" viewBox="0 0 16 16" fill="none" xmlns="http://www.w3.org/2000/svg">
<path d="M13.6223 12.2806C13.5432 12.1223 13.4641 11.964 13.4641 11.8057C13.4641 11.4892 13.3058 11.2518 13.0684 11.0144C12.9893 10.9352 12.831 10.8561 12.7518 10.8561C13.2267 9.43163 12.5144 8.00717 11.7231 6.97838C11.09 6.02874 10.1403 5.31651 10.2195 4.05032C10.2195 2.54672 10.3777 -0.223079 7.60794 0.0143318C4.75901 0.172606 5.55038 3.10067 5.47124 4.12945C5.47124 4.99996 5.07555 5.87047 4.44246 6.5827C4.28418 6.74097 4.12591 6.97839 4.04677 7.13666C3.2554 8.0863 2.85972 9.35249 2.85972 10.5395C2.70144 10.6978 2.54317 10.8561 2.46403 11.0144C2.3849 11.0935 2.30576 11.1726 2.30576 11.2518C2.22662 11.3309 2.06835 11.4101 1.91008 11.4892C1.59353 11.5683 1.35612 11.7266 1.19784 12.0432C1.11871 12.2806 1.03957 12.5971 1.11871 12.9137C1.19784 13.0719 1.19784 13.2302 1.11871 13.4676C0.960432 13.7842 0.960432 14.1798 1.11871 14.5755C1.35612 14.8921 1.7518 14.9712 2.30576 15.0504C2.70145 15.0504 3.17627 15.2086 3.57195 15.3669C3.96764 15.6043 4.44246 15.7626 4.91728 15.7626C5.15469 15.7626 5.47124 15.6835 5.70865 15.6043C5.94606 15.446 6.10434 15.2878 6.18347 15.0504C6.50002 15.0504 6.97484 14.8921 7.5288 14.8921C8.00362 14.8921 8.47844 15.0504 9.11154 14.9712C9.11154 15.0504 9.11154 15.1295 9.19068 15.2086C9.34895 15.6043 9.74464 15.9209 10.2195 16H10.3777C11.0108 15.9209 11.6439 15.6043 12.0396 15.1295C12.3562 14.8129 12.7518 14.5755 13.1475 14.4173C13.6223 14.1798 13.9389 14.0216 14.018 13.6259C14.0972 13.0719 13.9389 12.7554 13.6223 12.2806ZM8.1619 2.15103C8.63672 2.23017 9.0324 2.62585 8.95327 3.10067C8.95327 3.33808 8.87413 3.5755 8.71586 3.81291H8.63672C8.47844 3.73377 8.39931 3.73377 8.32017 3.65463C8.39931 3.5755 8.39931 3.41722 8.47844 3.25895C8.47844 2.9424 8.32017 2.70499 8.1619 2.70499C7.92449 2.70499 7.76621 2.9424 7.76621 3.25895V3.33809C7.68707 3.25895 7.5288 3.25895 7.44966 3.17981V3.10067C7.37053 2.70499 7.68707 2.23017 8.1619 2.15103ZM7.92449 3.73377C8.00362 3.81291 8.1619 3.89204 8.24103 3.89204C8.32017 3.89204 8.47844 3.97118 8.55758 4.05032C8.71586 4.12945 8.87413 4.20859 8.87413 4.446C8.87413 4.68341 8.63672 4.92082 8.1619 5.0791C8.00362 5.15824 7.92449 5.15824 7.84535 5.23737C7.60794 5.39565 7.37053 5.47478 7.05398 5.47478C6.81657 5.47478 6.57916 5.31651 6.42088 5.15824C6.34175 5.0791 6.26261 4.99996 6.10434 4.92082C6.0252 4.84169 5.86692 4.68341 5.78779 4.446C5.78779 4.36687 5.86692 4.28773 5.94606 4.20859C6.18347 4.05032 6.26261 3.97118 6.34175 3.89204L6.42088 3.81291C6.57916 3.5755 6.89571 3.41722 7.21225 3.41722C7.44966 3.49636 7.68707 3.5755 7.92449 3.73377ZM6.26261 2.3093C6.57916 2.3093 6.81657 2.62585 6.8957 3.17981V3.33809C6.81657 3.33809 6.65829 3.41722 6.57916 3.49636V3.33809C6.57916 3.10067 6.42088 2.86326 6.26261 2.9424C6.10433 2.9424 6.0252 3.17981 6.0252 3.41722C6.0252 3.5755 6.10434 3.65463 6.18347 3.73377C6.18347 3.73377 6.10434 3.81291 6.0252 3.81291C5.86692 3.65463 5.70865 3.41722 5.70865 3.17981C5.70865 2.70499 5.94606 2.3093 6.26261 2.3093ZM5.47124 15.0504C4.91728 15.2878 4.20505 15.2086 3.73023 14.8921C3.2554 14.6547 2.85972 14.5755 2.30576 14.5755C1.91008 14.4964 1.51439 14.4964 1.43525 14.3381C1.35612 14.1799 1.35612 13.9424 1.51439 13.5468C1.59353 13.3093 1.59353 13.0719 1.51439 12.8345C1.43525 12.5971 1.43525 12.4388 1.51439 12.2014C1.59353 11.964 1.7518 11.8849 1.98921 11.8057C2.22662 11.7266 2.3849 11.6475 2.54317 11.4892C2.62231 11.4101 2.70145 11.3309 2.78058 11.1726C3.01799 10.8561 3.17627 10.6978 3.41368 10.6978C3.8885 10.777 4.28418 11.4892 4.60073 12.2014C4.75901 12.4388 4.91728 12.7554 5.15469 12.9928C5.47124 13.3885 5.86692 13.9424 5.86692 14.259C5.86692 14.6547 5.70865 14.8921 5.47124 15.0504ZM9.34895 13.3093C9.34895 13.3885 9.34895 13.3885 9.26981 13.4676C8.32017 14.1799 7.05398 14.259 6.0252 13.705L5.55038 12.9928C6.26261 12.9137 6.10434 11.964 4.60073 11.0144C3.01799 9.98559 4.12591 8.0863 4.67987 7.2158C4.75901 7.13666 4.75901 7.2158 4.44246 7.84889C4.20505 8.32371 3.73023 9.51077 4.36332 10.3813C4.36332 9.74818 4.5216 9.11508 4.75901 8.48199C5.31297 7.45321 5.70865 6.26615 5.94606 5.0791C6.0252 5.15824 6.0252 5.15824 6.10434 5.15824C6.18347 5.23737 6.26261 5.31651 6.34175 5.31651C6.50002 5.55392 6.81657 5.63306 7.05398 5.63306H7.13312C7.44966 5.63306 7.76621 5.55392 8.00362 5.31651C8.08276 5.23737 8.1619 5.15824 8.32017 5.15824C8.55758 5.0791 8.79499 4.92082 9.0324 4.68341C9.34895 5.71219 9.6655 6.66184 10.1403 7.53234C10.4569 8.16544 10.6943 8.79854 10.8526 9.51077C11.09 9.51077 11.4065 9.58991 11.6439 9.74818C12.277 10.0647 12.5144 10.3021 12.4353 10.6978H12.277C12.277 10.4604 12.1187 10.223 11.5648 9.98559C11.0108 9.74818 10.536 9.74818 10.3777 10.3021C10.2986 10.3021 10.2195 10.3813 10.1403 10.3813C9.50723 10.6978 9.50723 11.5683 9.42809 12.4388C9.50723 12.7554 9.42809 12.9928 9.34895 13.3093ZM12.9893 13.7842C12.5144 13.9424 12.1187 14.259 11.8022 14.6547C11.4856 15.1295 10.9317 15.446 10.2986 15.3669C9.98205 15.3669 9.6655 15.1295 9.58636 14.8129C9.50723 14.3381 9.50723 13.8633 9.74464 13.3885C9.82377 13.0719 9.90291 12.8345 9.98205 12.518C10.0612 11.5683 10.0612 11.0144 10.4569 10.777C10.4569 11.1726 10.6943 11.4101 11.0108 11.5683C11.4065 11.5683 11.8022 11.4892 12.1187 11.1726H12.277C12.5144 11.1726 12.6727 11.1726 12.831 11.3309C12.9893 11.4892 13.0684 11.7266 13.0684 11.8849C13.0684 12.1223 13.2267 12.3597 13.3058 12.5971C13.7015 12.9928 13.7015 13.2302 13.7015 13.3093C13.6223 13.4676 13.3058 13.6259 12.9893 13.7842ZM5.86692 4.28773C5.78779 4.28773 5.78779 4.28773 5.78779 4.36687C5.78779 4.36687 5.78779 4.446 5.86692 4.446C5.94606 4.446 5.94606 4.52514 5.94606 4.52514C6.18347 4.84169 6.57916 4.99996 7.05398 5.0791C7.44966 4.99996 7.84535 4.92082 8.24103 4.60428L8.71586 4.36687C8.79499 4.36687 8.79499 4.28773 8.79499 4.28773C8.79499 4.20859 8.79499 4.20859 8.71586 4.20859C8.55758 4.28773 8.32017 4.36687 8.1619 4.446C7.84535 4.68341 7.44966 4.84169 7.05398 4.84169C6.65829 4.84169 6.34175 4.60428 6.10434 4.36687C6.0252 4.36687 5.94606 4.28773 5.86692 4.28773Z" fill="white"/>
</svg>
