<svg width="16" height="16" viewBox="0 0 16 16" fill="none" xmlns="http://www.w3.org/2000/svg">
<path d="M13.1333 11.7331C13.0667 11.5998 13 11.4664 13 11.3331C13 11.0664 12.8667 10.8664 12.6667 10.6664C12.6 10.5998 12.4667 10.5331 12.4 10.5331C12.8 9.3331 12.2 8.1331 11.5333 7.26644C11 6.46644 10.2 5.86644 10.2667 4.79977C10.2667 3.5331 10.4 1.19977 8.06667 1.39977C5.66667 1.5331 6.33333 3.99977 6.26667 4.86644C6.26667 5.59977 5.93333 6.3331 5.4 6.9331C5.26667 7.06644 5.13333 7.26644 5.06667 7.39977C4.4 8.19977 4.06667 9.26644 4.06667 10.2664C3.93333 10.3998 3.8 10.5331 3.73333 10.6664C3.66667 10.7331 3.6 10.7998 3.6 10.8664C3.53333 10.9331 3.4 10.9998 3.26667 11.0664C3 11.1331 2.8 11.2664 2.66667 11.5331C2.6 11.7331 2.53333 11.9998 2.6 12.2664C2.66667 12.3998 2.66667 12.5331 2.6 12.7331C2.46667 12.9998 2.46667 13.3331 2.6 13.6664C2.8 13.9331 3.13333 13.9998 3.6 14.0664C3.93333 14.0664 4.33333 14.1998 4.66667 14.3331C5 14.5331 5.4 14.6664 5.8 14.6664C6 14.6664 6.26667 14.5998 6.46667 14.5331C6.66667 14.3998 6.8 14.2664 6.86667 14.0664C7.13333 14.0664 7.53333 13.9331 8 13.9331C8.4 13.9331 8.8 14.0664 9.33333 13.9998C9.33333 14.0664 9.33333 14.1331 9.4 14.1998C9.53333 14.5331 9.86667 14.7998 10.2667 14.8664H10.4C10.9333 14.7998 11.4667 14.5331 11.8 14.1331C12.0667 13.8664 12.4 13.6664 12.7333 13.5331C13.1333 13.3331 13.4 13.1998 13.4667 12.8664C13.5333 12.3998 13.4 12.1331 13.1333 11.7331ZM8.53333 3.19977C8.93333 3.26644 9.26667 3.59977 9.2 3.99977C9.2 4.19977 9.13333 4.39977 9 4.59977H8.93333C8.8 4.5331 8.73333 4.5331 8.66667 4.46644C8.73333 4.39977 8.73333 4.26644 8.8 4.1331C8.8 3.86644 8.66667 3.66644 8.53333 3.66644C8.33333 3.66644 8.2 3.86644 8.2 4.1331V4.19977C8.13333 4.1331 8 4.1331 7.93333 4.06644V3.99977C7.86667 3.66644 8.13333 3.26644 8.53333 3.19977ZM8.33333 4.5331C8.4 4.59977 8.53333 4.66644 8.6 4.66644C8.66667 4.66644 8.8 4.7331 8.86667 4.79977C9 4.86644 9.13333 4.9331 9.13333 5.1331C9.13333 5.3331 8.93333 5.5331 8.53333 5.66644C8.4 5.7331 8.33333 5.7331 8.26667 5.79977C8.06667 5.9331 7.86667 5.99977 7.6 5.99977C7.4 5.99977 7.2 5.86644 7.06667 5.7331C7 5.66644 6.93333 5.59977 6.8 5.5331C6.73333 5.46644 6.6 5.3331 6.53333 5.1331C6.53333 5.06644 6.6 4.99977 6.66667 4.9331C6.86667 4.79977 6.93333 4.7331 7 4.66644L7.06667 4.59977C7.2 4.39977 7.46667 4.26644 7.73333 4.26644C7.93333 4.3331 8.13333 4.39977 8.33333 4.5331ZM6.93333 3.3331C7.2 3.3331 7.4 3.59977 7.46667 4.06644V4.19977C7.4 4.19977 7.26667 4.26644 7.2 4.3331V4.19977C7.2 3.99977 7.06667 3.79977 6.93333 3.86644C6.8 3.86644 6.73333 4.06644 6.73333 4.26644C6.73333 4.39977 6.8 4.46644 6.86667 4.5331C6.86667 4.5331 6.8 4.59977 6.73333 4.59977C6.6 4.46644 6.46667 4.26644 6.46667 4.06644C6.46667 3.66644 6.66667 3.3331 6.93333 3.3331ZM6.26667 14.0664C5.8 14.2664 5.2 14.1998 4.8 13.9331C4.4 13.7331 4.06667 13.6664 3.6 13.6664C3.26667 13.5998 2.93333 13.5998 2.86667 13.4664C2.8 13.3331 2.8 13.1331 2.93333 12.7998C3 12.5998 3 12.3998 2.93333 12.1998C2.86667 11.9998 2.86667 11.8664 2.93333 11.6664C3 11.4664 3.13333 11.3998 3.33333 11.3331C3.53333 11.2664 3.66667 11.1998 3.8 11.0664C3.86667 10.9998 3.93333 10.9331 4 10.7998C4.2 10.5331 4.33333 10.3998 4.53333 10.3998C4.93333 10.4664 5.26667 11.0664 5.53333 11.6664C5.66667 11.8664 5.8 12.1331 6 12.3331C6.26667 12.6664 6.6 13.1331 6.6 13.3998C6.6 13.7331 6.46667 13.9331 6.26667 14.0664ZM9.53333 12.5998C9.53333 12.6664 9.53333 12.6664 9.46667 12.7331C8.66667 13.3331 7.6 13.3998 6.73333 12.9331L6.33333 12.3331C6.93333 12.2664 6.8 11.4664 5.53333 10.6664C4.2 9.79977 5.13333 8.19977 5.6 7.46644C5.66667 7.39977 5.66667 7.46644 5.4 7.99977C5.2 8.39977 4.8 9.39977 5.33333 10.1331C5.33333 9.59977 5.46667 9.06644 5.66667 8.5331C6.13333 7.66644 6.46667 6.66644 6.66667 5.66644C6.73333 5.7331 6.73333 5.7331 6.8 5.7331C6.86667 5.79977 6.93333 5.86644 7 5.86644C7.13333 6.06644 7.4 6.1331 7.6 6.1331H7.66667C7.93333 6.1331 8.2 6.06644 8.4 5.86644C8.46667 5.79977 8.53333 5.7331 8.66667 5.7331C8.86667 5.66644 9.06667 5.5331 9.26667 5.3331C9.53333 6.19977 9.8 6.99977 10.2 7.7331C10.4667 8.26644 10.6667 8.79977 10.8 9.39977C11 9.39977 11.2667 9.46644 11.4667 9.59977C12 9.86644 12.2 10.0664 12.1333 10.3998H12C12 10.1998 11.8667 9.99977 11.4 9.79977C10.9333 9.59977 10.5333 9.59977 10.4 10.0664C10.3333 10.0664 10.2667 10.1331 10.2 10.1331C9.66667 10.3998 9.66667 11.1331 9.6 11.8664C9.66667 12.1331 9.6 12.3331 9.53333 12.5998ZM12.6 12.9998C12.2 13.1331 11.8667 13.3998 11.6 13.7331C11.3333 14.1331 10.8667 14.3998 10.3333 14.3331C10.0667 14.3331 9.8 14.1331 9.73333 13.8664C9.66667 13.4664 9.66667 13.0664 9.86667 12.6664C9.93333 12.3998 10 12.1998 10.0667 11.9331C10.1333 11.1331 10.1333 10.6664 10.4667 10.4664C10.4667 10.7998 10.6667 10.9998 10.9333 11.1331C11.2667 11.1331 11.6 11.0664 11.8667 10.7998H12C12.2 10.7998 12.3333 10.7998 12.4667 10.9331C12.6 11.0664 12.6667 11.2664 12.6667 11.3998C12.6667 11.5998 12.8 11.7998 12.8667 11.9998C13.2 12.3331 13.2 12.5331 13.2 12.5998C13.1333 12.7331 12.8667 12.8664 12.6 12.9998ZM6.6 4.99977C6.53333 4.99977 6.53333 4.99977 6.53333 5.06644C6.53333 5.06644 6.53333 5.1331 6.6 5.1331C6.66667 5.1331 6.66667 5.19977 6.66667 5.19977C6.86667 5.46644 7.2 5.59977 7.6 5.66644C7.93333 5.59977 8.26667 5.5331 8.6 5.26644L9 5.06644C9.06667 5.06644 9.06667 4.99977 9.06667 4.99977C9.06667 4.9331 9.06667 4.9331 9 4.9331C8.86667 4.99977 8.66667 5.06644 8.53333 5.1331C8.26667 5.3331 7.93333 5.46644 7.6 5.46644C7.26667 5.46644 7 5.26644 6.8 5.06644C6.73333 5.06644 6.66667 4.99977 6.6 4.99977Z" fill="white"/>
</svg>
