<svg width="101" height="35" viewBox="0 0 101 35" fill="none" xmlns="http://www.w3.org/2000/svg">
<rect x="0.517334" y="0.5" width="99" height="34" rx="7.5" stroke="#070915"/>
<path d="M29.1507 21.2331C29.084 21.0998 29.0173 20.9664 29.0173 20.8331C29.0173 20.5664 28.884 20.3664 28.684 20.1664C28.6173 20.0998 28.484 20.0331 28.4173 20.0331C28.8173 18.8331 28.2173 17.6331 27.5507 16.7664C27.0173 15.9664 26.2173 15.3664 26.284 14.2998C26.284 13.0331 26.4173 10.6998 24.084 10.8998C21.684 11.0331 22.3507 13.4998 22.284 14.3664C22.284 15.0998 21.9507 15.8331 21.4173 16.4331C21.284 16.5664 21.1507 16.7664 21.084 16.8998C20.4173 17.6998 20.084 18.7664 20.084 19.7664C19.9507 19.8998 19.8173 20.0331 19.7507 20.1664C19.684 20.2331 19.6173 20.2998 19.6173 20.3664C19.5507 20.4331 19.4173 20.4998 19.284 20.5664C19.0173 20.6331 18.8173 20.7664 18.684 21.0331C18.6173 21.2331 18.5507 21.4998 18.6173 21.7664C18.684 21.8998 18.684 22.0331 18.6173 22.2331C18.484 22.4998 18.484 22.8331 18.6173 23.1664C18.8173 23.4331 19.1507 23.4998 19.6173 23.5664C19.9507 23.5664 20.3507 23.6998 20.684 23.8331C21.0173 24.0331 21.4173 24.1664 21.8173 24.1664C22.0173 24.1664 22.284 24.0998 22.484 24.0331C22.684 23.8998 22.8173 23.7664 22.884 23.5664C23.1507 23.5664 23.5507 23.4331 24.0173 23.4331C24.4173 23.4331 24.8173 23.5664 25.3507 23.4998C25.3507 23.5664 25.3507 23.6331 25.4173 23.6998C25.5507 24.0331 25.884 24.2998 26.284 24.3664H26.4173C26.9507 24.2998 27.484 24.0331 27.8173 23.6331C28.084 23.3664 28.4173 23.1664 28.7507 23.0331C29.1507 22.8331 29.4173 22.6998 29.484 22.3664C29.5507 21.8998 29.4173 21.6331 29.1507 21.2331ZM24.5507 12.6998C24.9507 12.7664 25.284 13.0998 25.2173 13.4998C25.2173 13.6998 25.1507 13.8998 25.0173 14.0998H24.9507C24.8173 14.0331 24.7507 14.0331 24.684 13.9664C24.7507 13.8998 24.7507 13.7664 24.8173 13.6331C24.8173 13.3664 24.684 13.1664 24.5507 13.1664C24.3507 13.1664 24.2173 13.3664 24.2173 13.6331V13.6998C24.1507 13.6331 24.0173 13.6331 23.9507 13.5664V13.4998C23.884 13.1664 24.1507 12.7664 24.5507 12.6998ZM24.3507 14.0331C24.4173 14.0998 24.5507 14.1664 24.6173 14.1664C24.684 14.1664 24.8173 14.2331 24.884 14.2998C25.0173 14.3664 25.1507 14.4331 25.1507 14.6331C25.1507 14.8331 24.9507 15.0331 24.5507 15.1664C24.4173 15.2331 24.3507 15.2331 24.284 15.2998C24.084 15.4331 23.884 15.4998 23.6173 15.4998C23.4173 15.4998 23.2173 15.3664 23.084 15.2331C23.0173 15.1664 22.9507 15.0998 22.8173 15.0331C22.7507 14.9664 22.6173 14.8331 22.5507 14.6331C22.5507 14.5664 22.6173 14.4998 22.684 14.4331C22.884 14.2998 22.9507 14.2331 23.0173 14.1664L23.084 14.0998C23.2173 13.8998 23.484 13.7664 23.7507 13.7664C23.9507 13.8331 24.1507 13.8998 24.3507 14.0331ZM22.9507 12.8331C23.2173 12.8331 23.4173 13.0998 23.484 13.5664V13.6998C23.4173 13.6998 23.284 13.7664 23.2173 13.8331V13.6998C23.2173 13.4998 23.084 13.2998 22.9507 13.3664C22.8173 13.3664 22.7507 13.5664 22.7507 13.7664C22.7507 13.8998 22.8173 13.9664 22.884 14.0331C22.884 14.0331 22.8173 14.0998 22.7507 14.0998C22.6173 13.9664 22.484 13.7664 22.484 13.5664C22.484 13.1664 22.684 12.8331 22.9507 12.8331ZM22.284 23.5664C21.8173 23.7664 21.2173 23.6998 20.8173 23.4331C20.4173 23.2331 20.084 23.1664 19.6173 23.1664C19.284 23.0998 18.9507 23.0998 18.884 22.9664C18.8173 22.8331 18.8173 22.6331 18.9507 22.2998C19.0173 22.0998 19.0173 21.8998 18.9507 21.6998C18.884 21.4998 18.884 21.3664 18.9507 21.1664C19.0173 20.9664 19.1507 20.8998 19.3507 20.8331C19.5507 20.7664 19.684 20.6998 19.8173 20.5664C19.884 20.4998 19.9507 20.4331 20.0173 20.2998C20.2173 20.0331 20.3507 19.8998 20.5507 19.8998C20.9507 19.9664 21.284 20.5664 21.5507 21.1664C21.684 21.3664 21.8173 21.6331 22.0173 21.8331C22.284 22.1664 22.6173 22.6331 22.6173 22.8998C22.6173 23.2331 22.484 23.4331 22.284 23.5664ZM25.5507 22.0998C25.5507 22.1664 25.5507 22.1664 25.484 22.2331C24.684 22.8331 23.6173 22.8998 22.7507 22.4331L22.3507 21.8331C22.9507 21.7664 22.8173 20.9664 21.5507 20.1664C20.2173 19.2998 21.1507 17.6998 21.6173 16.9664C21.684 16.8998 21.684 16.9664 21.4173 17.4998C21.2173 17.8998 20.8173 18.8998 21.3507 19.6331C21.3507 19.0998 21.484 18.5664 21.684 18.0331C22.1507 17.1664 22.484 16.1664 22.684 15.1664C22.7507 15.2331 22.7507 15.2331 22.8173 15.2331C22.884 15.2998 22.9507 15.3664 23.0173 15.3664C23.1507 15.5664 23.4173 15.6331 23.6173 15.6331H23.684C23.9507 15.6331 24.2173 15.5664 24.4173 15.3664C24.484 15.2998 24.5507 15.2331 24.684 15.2331C24.884 15.1664 25.084 15.0331 25.284 14.8331C25.5507 15.6998 25.8173 16.4998 26.2173 17.2331C26.484 17.7664 26.684 18.2998 26.8173 18.8998C27.0173 18.8998 27.284 18.9664 27.484 19.0998C28.0173 19.3664 28.2173 19.5664 28.1507 19.8998H28.0173C28.0173 19.6998 27.884 19.4998 27.4173 19.2998C26.9507 19.0998 26.5507 19.0998 26.4173 19.5664C26.3507 19.5664 26.284 19.6331 26.2173 19.6331C25.684 19.8998 25.684 20.6331 25.6173 21.3664C25.684 21.6331 25.6173 21.8331 25.5507 22.0998ZM28.6173 22.4998C28.2173 22.6331 27.884 22.8998 27.6173 23.2331C27.3507 23.6331 26.884 23.8998 26.3507 23.8331C26.084 23.8331 25.8173 23.6331 25.7507 23.3664C25.684 22.9664 25.684 22.5664 25.884 22.1664C25.9507 21.8998 26.0173 21.6998 26.084 21.4331C26.1507 20.6331 26.1507 20.1664 26.484 19.9664C26.484 20.2998 26.684 20.4998 26.9507 20.6331C27.284 20.6331 27.6173 20.5664 27.884 20.2998H28.0173C28.2173 20.2998 28.3507 20.2998 28.484 20.4331C28.6173 20.5664 28.684 20.7664 28.684 20.8998C28.684 21.0998 28.8173 21.2998 28.884 21.4998C29.2173 21.8331 29.2173 22.0331 29.2173 22.0998C29.1507 22.2331 28.884 22.3664 28.6173 22.4998ZM22.6173 14.4998C22.5507 14.4998 22.5507 14.4998 22.5507 14.5664C22.5507 14.5664 22.5507 14.6331 22.6173 14.6331C22.684 14.6331 22.684 14.6998 22.684 14.6998C22.884 14.9664 23.2173 15.0998 23.6173 15.1664C23.9507 15.0998 24.284 15.0331 24.6173 14.7664L25.0173 14.5664C25.084 14.5664 25.084 14.4998 25.084 14.4998C25.084 14.4331 25.084 14.4331 25.0173 14.4331C24.884 14.4998 24.684 14.5664 24.5507 14.6331C24.284 14.8331 23.9507 14.9664 23.6173 14.9664C23.284 14.9664 23.0173 14.7664 22.8173 14.5664C22.7507 14.5664 22.684 14.4998 22.6173 14.4998Z" fill="#070915"/>
<path d="M43.3696 22.5V12.3182H44.2993V21.6648H49.1516V22.5H43.3696ZM52.1743 12.3182V22.5H51.2446V12.3182H52.1743ZM62.811 12.3182V22.5H61.9062L55.8906 13.9737H55.811V22.5H54.8813V12.3182H55.7812L61.8167 20.8544H61.8962V12.3182H62.811ZM72.3043 12.3182H73.234V19.0597C73.234 19.7524 73.0715 20.3722 72.7467 20.919C72.4219 21.4626 71.9695 21.8918 71.3895 22.2067C70.8128 22.5182 70.1416 22.674 69.376 22.674C68.6137 22.674 67.9425 22.5166 67.3625 22.2017C66.7825 21.8868 66.3301 21.4576 66.0053 20.9141C65.6804 20.3705 65.518 19.7524 65.518 19.0597V12.3182H66.4477V18.995C66.4477 19.5353 66.5687 20.0175 66.8107 20.4418C67.0526 20.8627 67.3923 21.1941 67.8298 21.4361C68.2706 21.678 68.786 21.799 69.376 21.799C69.966 21.799 70.4813 21.678 70.9222 21.4361C71.363 21.1941 71.7027 20.8627 71.9413 20.4418C72.1833 20.0175 72.3043 19.5353 72.3043 18.995V12.3182ZM76.0951 12.3182L78.914 16.7379H78.9786L81.7975 12.3182H82.8962L79.62 17.4091L82.8962 22.5H81.7975L78.9786 18.13H78.914L76.0951 22.5H74.9964L78.3224 17.4091L74.9964 12.3182H76.0951Z" fill="#070915"/>
</svg>
