<svg width="356" height="40" viewBox="0 0 356 40" fill="none" xmlns="http://www.w3.org/2000/svg">
<path d="M40 18.6476C40 16.1335 40 14.8764 39.219 14.0953C38.4379 13.3143 37.1808 13.3143 34.6667 13.3143H32.019C29.5049 13.3143 28.2478 13.3143 27.4668 12.5332C26.6857 11.7522 26.6857 10.4951 26.6857 7.98095V5.33333C26.6857 2.81918 26.6857 1.5621 25.9047 0.781049C25.1236 0 23.8665 0 21.3524 0H18.6476C16.1335 0 14.8764 0 14.0953 0.781049C13.3143 1.5621 13.3143 2.81918 13.3143 5.33333V7.98095C13.3143 10.4951 13.3143 11.7522 12.5332 12.5332C11.7522 13.3143 10.4951 13.3143 7.98095 13.3143H5.33333C2.81918 13.3143 1.5621 13.3143 0.781049 14.0953C0 14.8764 0 16.1335 0 18.6476V21.3524C0 23.8665 0 25.1236 0.781049 25.9047C1.5621 26.6857 2.81918 26.6857 5.33333 26.6857H7.98095C10.4951 26.6857 11.7522 26.6857 12.5332 27.4668C13.3143 28.2478 13.3143 29.5049 13.3143 32.0191V34.6667C13.3143 37.1808 13.3143 38.4379 14.0953 39.219C14.8764 40 16.1335 40 18.6476 40H21.3524C23.8665 40 25.1236 40 25.9047 39.219C26.6857 38.4379 26.6857 37.1808 26.6857 34.6667V32.019C26.6857 29.5049 26.6857 28.2478 27.4668 27.4668C28.2478 26.6857 29.5049 26.6857 32.0191 26.6857H34.6667C37.1808 26.6857 38.4379 26.6857 39.219 25.9047C40 25.1236 40 23.8665 40 21.3524V18.6476ZM21.2952 13.3714C23.8094 13.3714 25.0665 13.3714 25.8475 14.1525C26.6286 14.9335 26.6286 16.1906 26.6286 18.7048V21.2952C26.6286 23.8094 26.6286 25.0665 25.8475 25.8475C25.0665 26.6286 23.8094 26.6286 21.2952 26.6286H18.7048C16.1906 26.6286 14.9335 26.6286 14.1525 25.8475C13.3714 25.0665 13.3714 23.8094 13.3714 21.2952V18.7048C13.3714 16.1906 13.3714 14.9335 14.1525 14.1525C14.9335 13.3714 16.1906 13.3714 18.7048 13.3714H21.2952Z" fill="#E95353"/>
<path d="M58.6336 13.5925V18.1373H67.7548V22.6557H58.6336V29.7418H52.7865V9.07401H68.9938V13.5925H58.6336Z" fill="#070915"/>
<path d="M78.7531 14.0195C79.6705 13.6557 80.7144 13.4712 81.8954 13.4712V18.5222C81.384 18.4642 80.9622 18.4325 80.6248 18.4325C79.4227 18.4325 78.4842 18.7594 77.804 19.4079C77.1239 20.0564 76.7865 21.0529 76.7865 22.3921V29.7418H71.1766V13.7401H76.5228V15.6592C77.0923 14.9317 77.8357 14.3833 78.7531 14.0195Z" fill="#070915"/>
<path d="M96.9851 15.2902C98.3823 16.5028 99.0835 18.3587 99.0835 20.8578V29.7471H93.8585V27.6803C93.0518 29.2357 91.4754 30.0107 89.1344 30.0107C87.8954 30.0107 86.8199 29.7946 85.9183 29.3622C85.0114 28.9299 84.3313 28.3447 83.8673 27.6065C83.4033 26.8684 83.1714 26.0248 83.1714 25.081C83.1714 23.5679 83.7513 22.3921 84.9112 21.5538C86.0712 20.7155 87.8638 20.299 90.2838 20.299H93.4736C93.3735 18.6065 92.2452 17.7577 90.0782 17.7577C89.3084 17.7577 88.5334 17.8789 87.7478 18.1267C86.9622 18.3745 86.2926 18.712 85.739 19.1443L83.8515 15.3376C84.7373 14.7471 85.8128 14.2884 87.0835 13.9668C88.3541 13.6399 89.6301 13.4817 90.906 13.4817C93.5633 13.4817 95.5879 14.0881 96.9903 15.2955L96.9851 15.2902ZM92.4086 25.9932C92.8989 25.6768 93.2522 25.2181 93.4736 24.6065V23.2199H91.0536C89.4192 23.2199 88.6019 23.7629 88.6019 24.8438C88.6019 25.3341 88.7865 25.7295 89.1608 26.0248C89.5351 26.3201 90.0466 26.4677 90.6951 26.4677C91.3436 26.4677 91.913 26.3095 92.4086 25.9932Z" fill="#070915"/>
<path d="M117.848 15.248C119.061 16.429 119.662 18.2111 119.662 20.5942V29.7471H114.052V21.5116C114.052 19.3288 113.177 18.2322 111.426 18.2322C110.461 18.2322 109.692 18.5485 109.106 19.1759C108.526 19.8086 108.236 20.7524 108.236 22.0125V29.7471H102.627V13.7401H107.973V15.48C108.6 14.8315 109.349 14.3359 110.219 13.9879C111.083 13.6452 112.027 13.4712 113.055 13.4712C115.043 13.4712 116.641 14.0617 117.853 15.2427L117.848 15.248Z" fill="#070915"/>
<path d="M130.438 24.132L128.783 25.8139V29.7418H123.173V7.835H128.783V19.3183L134.509 13.7401H141.152L134.509 20.5889L141.711 29.7418H134.92L130.433 24.132H130.438Z" fill="#070915"/>
<path d="M158.989 23.1619H147.358C147.595 23.9897 148.054 24.6223 148.728 25.0652C149.409 25.5081 150.257 25.7295 151.28 25.7295C152.05 25.7295 152.714 25.6241 153.273 25.4027C153.832 25.1865 154.402 24.8332 154.971 24.3376L157.924 27.4062C156.368 29.1408 154.096 30.0055 151.101 30.0055C149.229 30.0055 147.59 29.6522 146.171 28.9404C144.753 28.2287 143.656 27.248 142.881 25.9879C142.106 24.7278 141.716 23.299 141.716 21.7067C141.716 20.1144 142.096 18.7172 142.855 17.4677C143.614 16.2181 144.658 15.2375 145.997 14.531C147.337 13.8245 148.839 13.4659 150.516 13.4659C152.192 13.4659 153.558 13.7981 154.855 14.4571C156.152 15.1162 157.185 16.0705 157.939 17.3201C158.699 18.5696 159.078 20.0512 159.078 21.7647C159.078 21.8069 159.047 22.2656 158.989 23.1513V23.1619ZM148.375 18.2005C147.795 18.6909 147.426 19.3605 147.268 20.2093H153.822C153.663 19.3658 153.294 18.6962 152.714 18.2005C152.134 17.7102 151.412 17.4624 150.542 17.4624C149.672 17.4624 148.955 17.7102 148.37 18.2005H148.375Z" fill="#070915"/>
<path d="M176.899 15.248C178.112 16.429 178.713 18.2111 178.713 20.5942V29.7471H173.103V21.5116C173.103 19.3288 172.228 18.2322 170.477 18.2322C169.512 18.2322 168.743 18.5485 168.157 19.1759C167.577 19.8086 167.287 20.7524 167.287 22.0125V29.7471H161.677V13.7401H167.024V15.48C167.651 14.8315 168.4 14.3359 169.27 13.9879C170.134 13.6452 171.078 13.4712 172.106 13.4712C174.094 13.4712 175.692 14.0617 176.904 15.2427L176.899 15.248Z" fill="#070915"/>
<path d="M185.888 28.9457C184.491 28.2392 183.405 27.2533 182.625 25.9932C181.85 24.7331 181.46 23.3042 181.46 21.712C181.46 20.1197 181.85 18.6962 182.625 17.4466C183.4 16.197 184.491 15.2216 185.888 14.5257C187.286 13.8297 188.873 13.4765 190.644 13.4765C192.416 13.4765 194.018 13.8666 195.337 14.6417C196.655 15.422 197.588 16.4976 198.141 17.8737L193.802 20.0881C193.075 18.654 192.01 17.9317 190.612 17.9317C189.611 17.9317 188.778 18.2691 188.119 18.9334C187.46 19.603 187.127 20.5257 187.127 21.7067C187.127 22.8877 187.454 23.8473 188.119 24.5274C188.778 25.2076 189.611 25.545 190.612 25.545C192.01 25.545 193.075 24.828 193.802 23.3886L198.141 25.603C197.588 26.9791 196.655 28.06 195.337 28.835C194.018 29.6153 192.453 30.0002 190.644 30.0002C188.836 30.0002 187.286 29.6469 185.888 28.9352V28.9457Z" fill="#070915"/>
<path d="M203.482 28.9457C202.106 28.2392 201.025 27.2533 200.25 25.9932C199.475 24.7331 199.085 23.3042 199.085 21.712C199.085 20.1197 199.475 18.7225 200.25 17.4624C201.025 16.2023 202.101 15.2216 203.467 14.5257C204.832 13.8297 206.382 13.4765 208.117 13.4765C209.851 13.4765 211.402 13.8245 212.783 14.5257C214.159 15.2269 215.235 16.197 215.999 17.4466C216.769 18.6962 217.148 20.1197 217.148 21.712C217.148 23.3042 216.764 24.7331 215.999 25.9932C215.229 27.2533 214.159 28.2392 212.783 28.9457C211.407 29.6522 209.851 30.0107 208.117 30.0107C206.382 30.0107 204.859 29.6575 203.482 28.9457ZM210.542 24.5327C211.17 23.8526 211.486 22.9141 211.486 21.712C211.486 20.5099 211.17 19.6083 210.542 18.9387C209.909 18.2691 209.103 17.9369 208.122 17.9369C207.141 17.9369 206.33 18.2744 205.702 18.9387C205.069 19.6083 204.758 20.531 204.758 21.712C204.758 22.893 205.075 23.8526 205.702 24.5327C206.33 25.2129 207.136 25.5503 208.122 25.5503C209.108 25.5503 209.915 25.2129 210.542 24.5327Z" fill="#070915"/>
<path d="M220.075 11.1144C219.442 10.545 219.131 9.83324 219.131 8.98965C219.131 8.14607 219.447 7.43429 220.075 6.86487C220.702 6.29545 221.53 6.01074 222.553 6.01074C223.576 6.01074 224.403 6.27963 225.031 6.82269C225.658 7.36575 225.975 8.05644 225.975 8.90529C225.975 9.75415 225.658 10.5239 225.031 11.1039C224.398 11.6839 223.576 11.9738 222.553 11.9738C221.53 11.9738 220.702 11.6891 220.075 11.1197V11.1144ZM219.753 13.7401H225.363V29.7418H219.753V13.7401Z" fill="#070915"/>
<path d="M244.212 15.248C245.424 16.429 246.025 18.2111 246.025 20.5942V29.7471H240.416V21.5116C240.416 19.3288 239.54 18.2322 237.79 18.2322C236.825 18.2322 236.055 18.5485 235.47 19.1759C234.89 19.8086 234.6 20.7524 234.6 22.0125V29.7471H228.99V13.7401H234.337V15.48C234.964 14.8315 235.713 14.3359 236.583 13.9879C237.447 13.6452 238.391 13.4712 239.419 13.4712C241.407 13.4712 243.004 14.0617 244.217 15.2427L244.212 15.248Z" fill="#070915"/>
<path d="M287.409 9.07401L280.707 29.7418H274.449L270.495 17.1619L266.361 29.7418H260.103L253.402 9.07401H259.423L263.588 22.2708L267.959 9.07401H273.331L277.496 22.3921L281.836 9.07401H287.414H287.409Z" fill="#070915"/>
<path d="M300.959 15.2902C302.356 16.5028 303.057 18.3587 303.057 20.8578V29.7471H297.832V27.6803C297.025 29.2357 295.449 30.0107 293.108 30.0107C291.869 30.0107 290.793 29.7946 289.892 29.3622C288.985 28.9299 288.305 28.3447 287.841 27.6065C287.377 26.8684 287.145 26.0248 287.145 25.081C287.145 23.5679 287.725 22.3921 288.885 21.5538C290.045 20.7155 291.837 20.299 294.257 20.299H297.447C297.347 18.6065 296.219 17.7577 294.052 17.7577C293.282 17.7577 292.507 17.8789 291.721 18.1267C290.936 18.3745 290.266 18.712 289.713 19.1443L287.825 15.3376C288.711 14.7471 289.786 14.2884 291.057 13.9668C292.328 13.6399 293.604 13.4817 294.88 13.4817C297.537 13.4817 299.561 14.0881 300.964 15.2955L300.959 15.2902ZM296.382 25.9932C296.873 25.6768 297.226 25.2181 297.447 24.6065V23.2199H295.027C293.393 23.2199 292.576 23.7629 292.576 24.8438C292.576 25.3341 292.76 25.7295 293.134 26.0248C293.509 26.3201 294.02 26.4677 294.669 26.4677C295.317 26.4677 295.887 26.3095 296.382 25.9932Z" fill="#070915"/>
<path d="M306.6 7.835H312.21V29.7418H306.6V7.835Z" fill="#070915"/>
<path d="M315.837 7.835H321.447V29.7418H315.837V7.835Z" fill="#070915"/>
<path d="M341.351 23.1619H329.72C329.957 23.9897 330.416 24.6223 331.09 25.0652C331.771 25.5081 332.62 25.7295 333.642 25.7295C334.412 25.7295 335.076 25.6241 335.635 25.4027C336.194 25.1865 336.764 24.8332 337.333 24.3376L340.286 27.4062C338.73 29.1408 336.458 30.0055 333.463 30.0055C331.591 30.0055 329.952 29.6522 328.533 28.9404C327.115 28.2287 326.018 27.248 325.243 25.9879C324.468 24.7278 324.078 23.299 324.078 21.7067C324.078 20.1144 324.458 18.7172 325.217 17.4677C325.976 16.2181 327.02 15.2375 328.359 14.531C329.699 13.8245 331.201 13.4659 332.878 13.4659C334.554 13.4659 335.92 13.7981 337.217 14.4571C338.514 15.1162 339.547 16.0705 340.301 17.3201C341.061 18.5696 341.44 20.0512 341.44 21.7647C341.44 21.8069 341.409 22.2656 341.351 23.1513V23.1619ZM330.732 18.2005C330.152 18.6909 329.783 19.3605 329.625 20.2093H336.178C336.02 19.3658 335.651 18.6962 335.071 18.2005C334.491 17.7102 333.769 17.4624 332.899 17.4624C332.029 17.4624 331.312 17.7102 330.727 18.2005H330.732Z" fill="#070915"/>
<path d="M355.08 29.0933C354.605 29.3886 354.031 29.6153 353.351 29.7735C352.67 29.9317 351.948 30.0107 351.178 30.0107C349.091 30.0107 347.488 29.4993 346.365 28.4765C345.242 27.4536 344.683 25.9299 344.683 23.9V18.5274H342.352V14.3359H344.683V10.1707H350.293V14.3359H353.952V18.5274H350.293V23.842C350.293 24.4114 350.446 24.8596 350.751 25.1865C351.057 25.5134 351.463 25.6716 351.975 25.6716C352.623 25.6716 353.192 25.5028 353.688 25.1707L355.075 29.0986L355.08 29.0933Z" fill="#070915"/>
</svg>
