<svg width="30" height="30" viewBox="0 0 30 30" fill="none" xmlns="http://www.w3.org/2000/svg">
<path d="M24.9997 18.3333H18.333V25H11.6664V18.3333H4.99969V11.6667H11.6664V5H18.333V11.6667H24.9997M26.6664 0H3.33303C1.48303 0 -0.000305176 1.48333 -0.000305176 3.33333V26.6667C-0.000305176 27.5507 0.350884 28.3986 0.976005 29.0237C1.60113 29.6488 2.44897 30 3.33303 30H26.6664C27.5504 30 28.3983 29.6488 29.0234 29.0237C29.6485 28.3986 29.9997 27.5507 29.9997 26.6667V3.33333C29.9997 2.44928 29.6485 1.60143 29.0234 0.976311C28.3983 0.351189 27.5504 0 26.6664 0Z" fill="#E95353"/>
</svg>
